<svg width="160" height="149" viewBox="0 0 160 149" fill="none" xmlns="http://www.w3.org/2000/svg">
<path d="M0 10.8674C0 4.8968 4.84016 0.0566406 10.8108 0.0566406H23.9017H43.9405C45.8032 0.0566406 47.62 0.634003 49.141 1.70925L64.8159 12.7905H103.414H135.189C141.16 12.7905 146 17.6306 146 23.6013V42.0566H0V10.8674Z" fill="url(#paint0_linear_640_5674)"/>
<g filter="url(#filter0_f_640_5674)">
<path d="M1 24.8675C1 18.8968 5.84017 14.0566 11.8108 14.0566H23.9017H43.9405C45.8032 14.0566 47.62 14.634 49.141 15.7093L64.8159 26.7905H103.414H139.189C145.16 26.7905 150 31.6306 150 37.6013V80.0566H1V24.8675Z" fill="#B9E6FE"/>
</g>
<g opacity="0.8" filter="url(#filter1_b_640_5674)">
<path d="M0 34.1276C0 28.5771 4.50527 24.0858 10.0557 24.1115C22.3497 24.1685 45.8277 24.2495 79.9997 24.2495C114.172 24.2495 137.65 24.1685 149.944 24.1115C155.494 24.0858 159.999 28.5771 159.999 34.1276V138C159.999 143.545 155.499 148.032 149.954 148.007C136.261 147.947 109.983 147.851 79.9997 147.851C50.0162 147.851 23.7379 147.947 10.045 148.007C4.49997 148.032 0 143.545 0 138V34.1276Z" fill="url(#paint1_radial_640_5674)"/>
<path d="M159.499 34.1276V138C159.499 143.268 155.224 147.531 149.957 147.507C136.263 147.447 109.984 147.351 79.9997 147.351C50.0152 147.351 23.7361 147.447 10.0428 147.507C4.77524 147.531 0.5 143.268 0.5 138V34.1276C0.5 28.8537 4.78045 24.587 10.0534 24.6115C22.3481 24.6685 45.8269 24.7495 79.9997 24.7495C114.172 24.7495 137.651 24.6685 149.946 24.6115C155.219 24.587 159.499 28.8537 159.499 34.1276Z" stroke="url(#paint2_radial_640_5674)"/>
<path d="M159.499 34.1276V138C159.499 143.268 155.224 147.531 149.957 147.507C136.263 147.447 109.984 147.351 79.9997 147.351C50.0152 147.351 23.7361 147.447 10.0428 147.507C4.77524 147.531 0.5 143.268 0.5 138V34.1276C0.5 28.8537 4.78045 24.587 10.0534 24.6115C22.3481 24.6685 45.8269 24.7495 79.9997 24.7495C114.172 24.7495 137.651 24.6685 149.946 24.6115C155.219 24.587 159.499 28.8537 159.499 34.1276Z" stroke="url(#paint3_radial_640_5674)"/>
<path d="M159.499 34.1276V138C159.499 143.268 155.224 147.531 149.957 147.507C136.263 147.447 109.984 147.351 79.9997 147.351C50.0152 147.351 23.7361 147.447 10.0428 147.507C4.77524 147.531 0.5 143.268 0.5 138V34.1276C0.5 28.8537 4.78045 24.587 10.0534 24.6115C22.3481 24.6685 45.8269 24.7495 79.9997 24.7495C114.172 24.7495 137.651 24.6685 149.946 24.6115C155.219 24.587 159.499 28.8537 159.499 34.1276Z" stroke="url(#paint4_linear_640_5674)"/>
</g>
<path d="M84.612 129.181C85.628 128.365 86.424 127.697 87 127.177C87.576 126.649 88.06 126.101 88.452 125.533C88.852 124.957 89.052 124.393 89.052 123.841C89.052 123.321 88.924 122.913 88.668 122.617C88.42 122.313 88.016 122.161 87.456 122.161C86.912 122.161 86.488 122.333 86.184 122.677C85.888 123.013 85.728 123.465 85.704 124.033H84.648C84.68 123.137 84.952 122.445 85.464 121.957C85.976 121.469 86.636 121.225 87.444 121.225C88.268 121.225 88.92 121.453 89.4 121.909C89.888 122.365 90.132 122.993 90.132 123.793C90.132 124.457 89.932 125.105 89.532 125.737C89.14 126.361 88.692 126.913 88.188 127.393C87.684 127.865 87.04 128.417 86.256 129.049H90.384V129.961H84.612V129.181ZM91.6463 125.629C91.6463 124.253 91.8703 123.181 92.3183 122.413C92.7663 121.637 93.5503 121.249 94.6703 121.249C95.7823 121.249 96.5623 121.637 97.0103 122.413C97.4583 123.181 97.6823 124.253 97.6823 125.629C97.6823 127.029 97.4583 128.117 97.0103 128.893C96.5623 129.669 95.7823 130.057 94.6703 130.057C93.5503 130.057 92.7663 129.669 92.3183 128.893C91.8703 128.117 91.6463 127.029 91.6463 125.629ZM96.6023 125.629C96.6023 124.933 96.5543 124.345 96.4583 123.865C96.3703 123.377 96.1823 122.985 95.8943 122.689C95.6143 122.393 95.2063 122.245 94.6703 122.245C94.1263 122.245 93.7103 122.393 93.4223 122.689C93.1423 122.985 92.9543 123.377 92.8583 123.865C92.7703 124.345 92.7263 124.933 92.7263 125.629C92.7263 126.349 92.7703 126.953 92.8583 127.441C92.9543 127.929 93.1423 128.321 93.4223 128.617C93.7103 128.913 94.1263 129.061 94.6703 129.061C95.2063 129.061 95.6143 128.913 95.8943 128.617C96.1823 128.321 96.3703 127.929 96.4583 127.441C96.5543 126.953 96.6023 126.349 96.6023 125.629ZM99.0495 129.181C100.066 128.365 100.862 127.697 101.438 127.177C102.014 126.649 102.498 126.101 102.89 125.533C103.29 124.957 103.49 124.393 103.49 123.841C103.49 123.321 103.362 122.913 103.106 122.617C102.858 122.313 102.454 122.161 101.894 122.161C101.35 122.161 100.926 122.333 100.622 122.677C100.326 123.013 100.166 123.465 100.142 124.033H99.0855C99.1175 123.137 99.3895 122.445 99.9015 121.957C100.414 121.469 101.074 121.225 101.882 121.225C102.706 121.225 103.358 121.453 103.838 121.909C104.326 122.365 104.57 122.993 104.57 123.793C104.57 124.457 104.37 125.105 103.97 125.737C103.578 126.361 103.13 126.913 102.626 127.393C102.122 127.865 101.478 128.417 100.694 129.049H104.822V129.961H99.0495V129.181ZM105.952 129.181C106.968 128.365 107.764 127.697 108.34 127.177C108.916 126.649 109.4 126.101 109.792 125.533C110.192 124.957 110.392 124.393 110.392 123.841C110.392 123.321 110.264 122.913 110.008 122.617C109.76 122.313 109.356 122.161 108.796 122.161C108.252 122.161 107.828 122.333 107.524 122.677C107.228 123.013 107.068 123.465 107.044 124.033H105.988C106.02 123.137 106.292 122.445 106.804 121.957C107.316 121.469 107.976 121.225 108.784 121.225C109.608 121.225 110.26 121.453 110.74 121.909C111.228 122.365 111.472 122.993 111.472 123.793C111.472 124.457 111.272 125.105 110.872 125.737C110.48 126.361 110.032 126.913 109.528 127.393C109.024 127.865 108.38 128.417 107.596 129.049H111.724V129.961H105.952V129.181ZM113.514 130.129C113.306 130.129 113.13 130.057 112.986 129.913C112.842 129.769 112.77 129.593 112.77 129.385C112.77 129.177 112.842 129.001 112.986 128.857C113.13 128.713 113.306 128.641 113.514 128.641C113.714 128.641 113.882 128.713 114.018 128.857C114.162 129.001 114.234 129.177 114.234 129.385C114.234 129.593 114.162 129.769 114.018 129.913C113.882 130.057 113.714 130.129 113.514 130.129ZM115.506 125.629C115.506 124.253 115.73 123.181 116.178 122.413C116.626 121.637 117.41 121.249 118.53 121.249C119.642 121.249 120.422 121.637 120.87 122.413C121.318 123.181 121.542 124.253 121.542 125.629C121.542 127.029 121.318 128.117 120.87 128.893C120.422 129.669 119.642 130.057 118.53 130.057C117.41 130.057 116.626 129.669 116.178 128.893C115.73 128.117 115.506 127.029 115.506 125.629ZM120.462 125.629C120.462 124.933 120.414 124.345 120.318 123.865C120.23 123.377 120.042 122.985 119.754 122.689C119.474 122.393 119.066 122.245 118.53 122.245C117.986 122.245 117.57 122.393 117.282 122.689C117.002 122.985 116.814 123.377 116.718 123.865C116.63 124.345 116.586 124.933 116.586 125.629C116.586 126.349 116.63 126.953 116.718 127.441C116.814 127.929 117.002 128.321 117.282 128.617C117.57 128.913 117.986 129.061 118.53 129.061C119.066 129.061 119.474 128.913 119.754 128.617C120.042 128.321 120.23 127.929 120.318 127.441C120.414 126.953 120.462 126.349 120.462 125.629ZM127.877 123.445C127.701 122.557 127.153 122.113 126.233 122.113C125.521 122.113 124.989 122.389 124.637 122.941C124.285 123.485 124.113 124.385 124.121 125.641C124.305 125.225 124.609 124.901 125.033 124.669C125.465 124.429 125.945 124.309 126.473 124.309C127.297 124.309 127.953 124.565 128.441 125.077C128.937 125.589 129.185 126.297 129.185 127.201C129.185 127.745 129.077 128.233 128.861 128.665C128.653 129.097 128.333 129.441 127.901 129.697C127.477 129.953 126.961 130.081 126.353 130.081C125.529 130.081 124.885 129.897 124.421 129.529C123.957 129.161 123.633 128.653 123.449 128.005C123.265 127.357 123.173 126.557 123.173 125.605C123.173 122.669 124.197 121.201 126.245 121.201C127.029 121.201 127.645 121.413 128.093 121.837C128.541 122.261 128.805 122.797 128.885 123.445H127.877ZM126.245 125.233C125.901 125.233 125.577 125.305 125.273 125.449C124.969 125.585 124.721 125.797 124.529 126.085C124.345 126.365 124.253 126.709 124.253 127.117C124.253 127.725 124.429 128.221 124.781 128.605C125.133 128.981 125.637 129.169 126.293 129.169C126.853 129.169 127.297 128.997 127.625 128.653C127.961 128.301 128.129 127.829 128.129 127.237C128.129 126.613 127.969 126.125 127.649 125.773C127.329 125.413 126.861 125.233 126.245 125.233ZM131.186 130.129C130.978 130.129 130.802 130.057 130.658 129.913C130.514 129.769 130.442 129.593 130.442 129.385C130.442 129.177 130.514 129.001 130.658 128.857C130.802 128.713 130.978 128.641 131.186 128.641C131.386 128.641 131.554 128.713 131.69 128.857C131.834 129.001 131.906 129.177 131.906 129.385C131.906 129.593 131.834 129.769 131.69 129.913C131.554 130.057 131.386 130.129 131.186 130.129ZM132.89 122.377V121.381H135.146V130.057H134.042V122.377H132.89ZM138.425 127.729C138.505 128.185 138.689 128.537 138.977 128.785C139.273 129.033 139.669 129.157 140.165 129.157C140.829 129.157 141.317 128.897 141.629 128.377C141.949 127.857 142.101 126.981 142.085 125.749C141.917 126.109 141.637 126.393 141.245 126.601C140.853 126.801 140.417 126.901 139.937 126.901C139.401 126.901 138.921 126.793 138.497 126.577C138.081 126.353 137.753 126.029 137.513 125.605C137.273 125.181 137.153 124.669 137.153 124.069C137.153 123.213 137.401 122.525 137.897 122.005C138.393 121.477 139.097 121.213 140.009 121.213C141.129 121.213 141.913 121.577 142.361 122.305C142.817 123.033 143.045 124.117 143.045 125.557C143.045 126.565 142.953 127.397 142.769 128.053C142.593 128.709 142.289 129.209 141.857 129.553C141.433 129.897 140.849 130.069 140.105 130.069C139.289 130.069 138.653 129.849 138.197 129.409C137.741 128.969 137.481 128.409 137.417 127.729H138.425ZM140.117 125.977C140.653 125.977 141.093 125.813 141.437 125.485C141.781 125.149 141.953 124.697 141.953 124.129C141.953 123.529 141.785 123.045 141.449 122.677C141.113 122.309 140.641 122.125 140.033 122.125C139.473 122.125 139.025 122.301 138.689 122.653C138.361 123.005 138.197 123.469 138.197 124.045C138.197 124.629 138.361 125.097 138.689 125.449C139.017 125.801 139.493 125.977 140.117 125.977Z" fill="#6B7280"/>
<defs>
<filter id="filter0_f_640_5674" x="-19" y="-5.94336" width="189" height="106" filterUnits="userSpaceOnUse" color-interpolation-filters="sRGB">
<feFlood flood-opacity="0" result="BackgroundImageFix"/>
<feBlend mode="normal" in="SourceGraphic" in2="BackgroundImageFix" result="shape"/>
<feGaussianBlur stdDeviation="10" result="effect1_foregroundBlur_640_5674"/>
</filter>
<filter id="filter1_b_640_5674" x="-50" y="-25.8887" width="259.999" height="223.896" filterUnits="userSpaceOnUse" color-interpolation-filters="sRGB">
<feFlood flood-opacity="0" result="BackgroundImageFix"/>
<feGaussianBlur in="BackgroundImage" stdDeviation="25"/>
<feComposite in2="SourceAlpha" operator="in" result="effect1_backgroundBlur_640_5674"/>
<feBlend mode="normal" in="SourceGraphic" in2="effect1_backgroundBlur_640_5674" result="shape"/>
</filter>
<linearGradient id="paint0_linear_640_5674" x1="73" y1="21.0566" x2="73" y2="42.0566" gradientUnits="userSpaceOnUse">
<stop stop-color="#B9E6FE"/>
<stop offset="1" stop-color="#B9E6FE" stop-opacity="0"/>
</linearGradient>
<radialGradient id="paint1_radial_640_5674" cx="0" cy="0" r="1" gradientUnits="userSpaceOnUse" gradientTransform="translate(28 35.5566) rotate(72.8973) scale(176.819 277.658)">
<stop stop-color="white"/>
<stop offset="1" stop-color="#B9E6FE" stop-opacity="0"/>
</radialGradient>
<radialGradient id="paint2_radial_640_5674" cx="0" cy="0" r="1" gradientUnits="userSpaceOnUse" gradientTransform="translate(1.43915 28.1029) rotate(39.4533) scale(202.171 317.468)">
<stop stop-color="#E0F2FE" stop-opacity="0"/>
<stop offset="1" stop-color="#E0F2FE"/>
</radialGradient>
<radialGradient id="paint3_radial_640_5674" cx="0" cy="0" r="1" gradientUnits="userSpaceOnUse" gradientTransform="translate(2.20105 155.898) rotate(-39.4428) scale(201.154 315.52)">
<stop stop-color="#E0F2FE" stop-opacity="0"/>
<stop offset="1" stop-color="#E0F2FE"/>
</radialGradient>
<linearGradient id="paint4_linear_640_5674" x1="2.96295" y1="27.7657" x2="176.6" y2="121.096" gradientUnits="userSpaceOnUse">
<stop stop-color="#E0F2FE" stop-opacity="0.4"/>
<stop offset="1" stop-color="#E0F2FE" stop-opacity="0"/>
</linearGradient>
</defs>
</svg>
