<svg width="28" height="28" viewBox="0 0 28 28" fill="none" xmlns="http://www.w3.org/2000/svg">
<path d="M12.0661 4.15256C13.2036 3.28248 14.7964 3.28248 15.9339 4.15256L23.2839 9.77465C24.0512 10.3616 24.5 11.264 24.5 12.22V21.4021C24.5 22.2237 24.1681 23.0117 23.5774 23.5927C22.9866 24.1736 22.1854 24.5 21.35 24.5H18.15C17.5977 24.5 17.15 24.0523 17.15 23.5V18.3042C17.15 17.1636 16.2098 16.239 15.05 16.239H12.95C11.7902 16.239 10.85 17.1636 10.85 18.3042V23.5C10.85 24.0523 10.4023 24.5 9.85 24.5H6.65C5.81457 24.5 5.01335 24.1736 4.42261 23.5927C3.83187 23.0117 3.5 22.2237 3.5 21.4021V12.22C3.5 11.264 3.94879 10.3616 4.71609 9.77464L12.0661 4.15256Z" fill="#D1D5DB"/>
</svg>
