<svg width="48" height="48" viewBox="0 0 48 48" fill="none" xmlns="http://www.w3.org/2000/svg">
<circle cx="24" cy="24" r="24" fill="url(#paint0_linear_1025_5168)"/>
<path d="M20 16C20.5523 16 21 15.5523 21 15C21 14.4477 20.5523 14 20 14V16ZM14 20C14 20.5523 14.4477 21 15 21C15.5523 21 16 20.5523 16 20H14ZM16.638 15.327L17.092 16.218L16.638 15.327ZM15.327 16.638L16.218 17.092L15.327 16.638ZM20 34C20.5523 34 21 33.5523 21 33C21 32.4477 20.5523 32 20 32V34ZM16 28C16 27.4477 15.5523 27 15 27C14.4477 27 14 27.4477 14 28H16ZM16.638 32.673L17.092 31.782H17.092L16.638 32.673ZM15.327 31.362L14.436 31.816L15.327 31.362ZM32 20C32 20.5523 32.4477 21 33 21C33.5523 21 34 20.5523 34 20H32ZM28 14C27.4477 14 27 14.4477 27 15C27 15.5523 27.4477 16 28 16V14ZM32.673 16.638L31.782 17.092V17.092L32.673 16.638ZM31.362 15.327L30.908 16.218L31.362 15.327ZM34 28C34 27.4477 33.5523 27 33 27C32.4477 27 32 27.4477 32 28H34ZM28 32C27.4477 32 27 32.4477 27 33C27 33.5523 27.4477 34 28 34V32ZM32.673 31.362L31.782 30.908V30.908L32.673 31.362ZM31.362 32.673L30.908 31.782H30.908L31.362 32.673ZM19.8 16H20V14H19.8V16ZM16 20V19.8H14V20H16ZM19.8 14C18.9764 14 18.2986 13.9992 17.7482 14.0442C17.1861 14.0901 16.6694 14.1887 16.184 14.436L17.092 16.218C17.2484 16.1383 17.4726 16.0734 17.911 16.0376C18.3611 16.0008 18.9434 16 19.8 16V14ZM16 19.8C16 18.9434 16.0008 18.3611 16.0376 17.911C16.0734 17.4726 16.1383 17.2484 16.218 17.092L14.436 16.184C14.1887 16.6694 14.0901 17.1861 14.0442 17.7482C13.9992 18.2986 14 18.9764 14 19.8H16ZM16.184 14.436C15.4314 14.8195 14.8195 15.4314 14.436 16.184L16.218 17.092C16.4097 16.7157 16.7157 16.4097 17.092 16.218L16.184 14.436ZM19.8 34H20V32H19.8V34ZM14 28V28.2H16V28H14ZM19.8 32C18.9434 32 18.3611 31.9992 17.911 31.9624C17.4726 31.9266 17.2484 31.8617 17.092 31.782L16.184 33.564C16.6694 33.8113 17.1861 33.9099 17.7482 33.9558C18.2986 34.0008 18.9764 34 19.8 34V32ZM14 28.2C14 29.0236 13.9992 29.7014 14.0442 30.2518C14.0901 30.8139 14.1887 31.3306 14.436 31.816L16.218 30.908C16.1383 30.7516 16.0734 30.5274 16.0376 30.089C16.0008 29.6389 16 29.0566 16 28.2H14ZM17.092 31.782C16.7157 31.5903 16.4097 31.2843 16.218 30.908L14.436 31.816C14.8195 32.5686 15.4314 33.1805 16.184 33.564L17.092 31.782ZM32 19.8V20H34V19.8H32ZM28 16H28.2V14H28V16ZM34 19.8C34 18.9764 34.0008 18.2986 33.9558 17.7482C33.9099 17.1861 33.8113 16.6694 33.564 16.184L31.782 17.092C31.8617 17.2484 31.9266 17.4726 31.9624 17.911C31.9992 18.3611 32 18.9434 32 19.8H34ZM28.2 16C29.0566 16 29.6389 16.0008 30.089 16.0376C30.5274 16.0734 30.7516 16.1383 30.908 16.218L31.816 14.436C31.3306 14.1887 30.8139 14.0901 30.2518 14.0442C29.7014 13.9992 29.0236 14 28.2 14V16ZM33.564 16.184C33.1805 15.4314 32.5686 14.8195 31.816 14.436L30.908 16.218C31.2843 16.4097 31.5903 16.7157 31.782 17.092L33.564 16.184ZM34 28.2V28H32V28.2H34ZM28 34H28.2V32H28V34ZM32 28.2C32 29.0566 31.9992 29.6389 31.9624 30.089C31.9266 30.5274 31.8617 30.7516 31.782 30.908L33.564 31.816C33.8113 31.3306 33.9099 30.8139 33.9558 30.2518C34.0008 29.7014 34 29.0236 34 28.2H32ZM28.2 34C29.0236 34 29.7014 34.0008 30.2518 33.9558C30.8139 33.9099 31.3306 33.8113 31.816 33.564L30.908 31.782C30.7516 31.8617 30.5274 31.9266 30.089 31.9624C29.6389 31.9992 29.0566 32 28.2 32V34ZM31.782 30.908C31.5903 31.2843 31.2843 31.5903 30.908 31.782L31.816 33.564C32.5686 33.1805 33.1805 32.5686 33.564 31.816L31.782 30.908Z" fill="white"/>
<defs>
<linearGradient id="paint0_linear_1025_5168" x1="24" y1="0" x2="24" y2="71.6129" gradientUnits="userSpaceOnUse">
<stop stop-color="#0BA5EC"/>
<stop offset="1" stop-color="#B9E6FE"/>
</linearGradient>
</defs>
</svg>
