<svg width="28" height="28" viewBox="0 0 28 28" fill="none" xmlns="http://www.w3.org/2000/svg">
<path d="M17.7123 11.2957C18.6969 10.3111 19.25 8.97573 19.25 7.58334C19.25 6.19096 18.6969 4.8556 17.7123 3.87103C16.7277 2.88647 15.3924 2.33334 14 2.33334C12.6076 2.33334 11.2723 2.88647 10.2877 3.87103C9.30312 4.8556 8.75 6.19096 8.75 7.58334C8.75 8.97573 9.30312 10.3111 10.2877 11.2957C11.2723 12.2802 12.6076 12.8333 14 12.8333C15.3924 12.8333 16.7277 12.2802 17.7123 11.2957Z" fill="#111827"/>
<path d="M3.5 21C3.5 17.134 6.63401 14 10.5 14H17.5C21.366 14 24.5 17.134 24.5 21V23C24.5 23.8284 23.8284 24.5 23 24.5H5C4.17157 24.5 3.5 23.8284 3.5 23V21Z" fill="#111827"/>
</svg>
