<svg width="29" height="28" viewBox="0 0 29 28" fill="none" xmlns="http://www.w3.org/2000/svg">
<path d="M18.2123 11.2953C19.1969 10.3108 19.75 8.97539 19.75 7.58301C19.75 6.19062 19.1969 4.85526 18.2123 3.8707C17.2277 2.88613 15.8924 2.33301 14.5 2.33301C13.1076 2.33301 11.7723 2.88613 10.7877 3.8707C9.80312 4.85526 9.25 6.19062 9.25 7.58301C9.25 8.97539 9.80312 10.3108 10.7877 11.2953C11.7723 12.2799 13.1076 12.833 14.5 12.833C15.8924 12.833 17.2277 12.2799 18.2123 11.2953Z" fill="#D1D5DB"/>
<path d="M4 21C4 17.134 7.13401 14 11 14H18C21.866 14 25 17.134 25 21V23C25 23.8284 24.3284 24.5 23.5 24.5H5.5C4.67157 24.5 4 23.8284 4 23V21Z" fill="#D1D5DB"/>
</svg>
